<?xml version="1.0" encoding="UTF-8"?>
<!DOCTYPE svg PUBLIC "-//W3C//DTD SVG 1.1//EN" "http://www.w3.org/Graphics/SVG/1.1/DTD/svg11.dtd">
<svg xmlns="http://www.w3.org/2000/svg" version="1.1" width="192px" height="256px" style="shape-rendering:geometricPrecision; text-rendering:geometricPrecision; image-rendering:optimizeQuality; fill-rule:evenodd; clip-rule:evenodd" xmlns:xlink="http://www.w3.org/1999/xlink">
<g><path style="opacity:1" fill="#494e54" d="M 143.5,107.5 C 144.056,99.8324 144.223,92.1658 144,84.5C 141.705,82.0622 138.872,80.5622 135.5,80C 111.845,78.4436 88.1782,78.4436 64.5,80C 58.8792,80.4708 54.5459,82.9708 51.5,87.5C 49.6835,78.1086 53.6835,72.6086 63.5,71C 82.1421,68.371 100.809,68.0376 119.5,70C 121.377,72.921 123.377,75.7544 125.5,78.5C 128.601,76.9016 131.268,74.7349 133.5,72C 139.328,70.9443 143.495,73.111 146,78.5C 146.287,88.3889 145.454,98.0556 143.5,107.5 Z"/></g>
<g><path style="opacity:1" fill="#3c3e41" d="M 143.5,107.5 C 143.249,112.507 142.916,117.507 142.5,122.5C 141.157,128.667 139.99,135 139,141.5C 137.211,143.229 135.044,143.896 132.5,143.5C 130.286,142.608 129.286,140.942 129.5,138.5C 130.547,128.959 131.88,119.459 133.5,110C 133.167,109.167 132.833,108.333 132.5,107.5C 125.796,110.457 118.796,112.29 111.5,113C 100.5,113.667 89.5,113.667 78.5,113C 74.0749,112.583 69.7416,111.749 65.5,110.5C 65.1667,111.667 64.8333,112.833 64.5,114C 65.956,122.807 66.7893,131.64 67,140.5C 66.6232,141.942 65.7899,142.942 64.5,143.5C 61.9556,143.896 59.7889,143.229 58,141.5C 57.194,135.111 56.3607,128.778 55.5,122.5C 53.7581,110.897 52.4248,99.2303 51.5,87.5C 54.5459,82.9708 58.8792,80.4708 64.5,80C 88.1782,78.4436 111.845,78.4436 135.5,80C 138.872,80.5622 141.705,82.0622 144,84.5C 144.223,92.1658 144.056,99.8324 143.5,107.5 Z"/></g>
<g><path style="opacity:1" fill="#bc7757" d="M 132.5,143.5 C 133.209,144.404 134.209,144.737 135.5,144.5C 135.108,147.146 135.108,149.646 135.5,152C 134.692,152.308 134.025,152.808 133.5,153.5C 134.127,154.417 134.461,155.417 134.5,156.5C 134.107,158.284 133.441,159.95 132.5,161.5C 130.517,162.471 128.517,163.471 126.5,164.5C 126.167,164.5 125.833,164.5 125.5,164.5C 123.379,164.325 121.379,164.659 119.5,165.5C 115.702,164.517 111.702,164.183 107.5,164.5C 96.9865,164.172 86.6532,164.506 76.5,165.5C 73.8333,164.167 71.1667,164.167 68.5,165.5C 66.7354,164.539 64.7354,164.205 62.5,164.5C 62.5,163.167 62.5,161.833 62.5,160.5C 61.6586,158.621 61.3253,156.621 61.5,154.5C 57.919,154.862 54.919,153.862 52.5,151.5C 54.7819,152.39 57.1152,152.556 59.5,152C 58.6634,150.989 58.33,149.822 58.5,148.5C 59.5,148.5 60.5,148.5 61.5,148.5C 61.5,147.167 61.5,145.833 61.5,144.5C 62.791,144.737 63.791,144.404 64.5,143.5C 65.7899,142.942 66.6232,141.942 67,140.5C 66.7893,131.64 65.956,122.807 64.5,114C 64.8333,112.833 65.1667,111.667 65.5,110.5C 69.7416,111.749 74.0749,112.583 78.5,113C 89.5,113.667 100.5,113.667 111.5,113C 118.796,112.29 125.796,110.457 132.5,107.5C 132.833,108.333 133.167,109.167 133.5,110C 131.88,119.459 130.547,128.959 129.5,138.5C 129.286,140.942 130.286,142.608 132.5,143.5 Z"/></g>
<g><path style="opacity:1" fill="#424346" d="M 87.5,126.5 C 83.8333,126.5 80.1667,126.5 76.5,126.5C 75.0813,125.549 73.4147,125.216 71.5,125.5C 71.5,123.833 71.5,122.167 71.5,120.5C 78.5,120.5 85.5,120.5 92.5,120.5C 92.5,122.5 92.5,124.5 92.5,126.5C 90.8333,126.5 89.1667,126.5 87.5,126.5 Z"/></g>
<g><path style="opacity:1" fill="#444446" d="M 121.5,126.5 C 117.5,126.5 113.5,126.5 109.5,126.5C 108.167,126.5 106.833,126.5 105.5,126.5C 105.5,124.5 105.5,122.5 105.5,120.5C 112.833,120.5 120.167,120.5 127.5,120.5C 127.5,122.167 127.5,123.833 127.5,125.5C 125.265,125.205 123.265,125.539 121.5,126.5 Z"/></g>
<g><path style="opacity:1" fill="#f5f3f1" d="M 76.5,126.5 C 80.1667,126.5 83.8333,126.5 87.5,126.5C 90.5671,131.793 89.9004,136.626 85.5,141C 78.4731,142.327 74.4731,139.494 73.5,132.5C 73.4672,129.898 74.4672,127.898 76.5,126.5 Z"/></g>
<g><path style="opacity:1" fill="#f5f3f1" d="M 109.5,126.5 C 113.5,126.5 117.5,126.5 121.5,126.5C 124.615,131.864 123.948,136.697 119.5,141C 108.409,141.668 105.075,136.834 109.5,126.5 Z"/></g>
<g><path style="opacity:1" fill="#424548" d="M 80.5,127.5 C 87.8027,127.602 89.8027,130.769 86.5,137C 81.9322,138.65 79.2656,137.15 78.5,132.5C 79.1869,130.823 79.8535,129.156 80.5,127.5 Z"/></g>
<g><path style="opacity:1" fill="#434548" d="M 111.5,127.5 C 118.297,128.107 119.964,131.274 116.5,137C 111.932,138.65 109.266,137.15 108.5,132.5C 109.092,130.577 110.092,128.911 111.5,127.5 Z"/></g>
<g><path style="opacity:1" fill="#955436" d="M 105.5,143.5 C 101.613,143.687 97.6128,143.354 93.5,142.5C 91.1389,137.279 92.8056,134.613 98.5,134.5C 100.926,134.404 103.093,135.07 105,136.5C 104.936,138.956 105.102,141.289 105.5,143.5 Z"/></g>
<g><path style="opacity:1" fill="#aa6e51" d="M 55.5,122.5 C 56.3607,128.778 57.194,135.111 58,141.5C 59.7889,143.229 61.9556,143.896 64.5,143.5C 63.791,144.404 62.791,144.737 61.5,144.5C 61.5,145.833 61.5,147.167 61.5,148.5C 60.5,148.5 59.5,148.5 58.5,148.5C 58.33,149.822 58.6634,150.989 59.5,152C 57.1152,152.556 54.7819,152.39 52.5,151.5C 45.9393,146.839 43.7727,140.505 46,132.5C 47.6029,127.588 50.7695,124.255 55.5,122.5 Z"/></g>
<g><path style="opacity:1" fill="#403f41" d="M 93.5,142.5 C 97.6128,143.354 101.613,143.687 105.5,143.5C 109.797,144.066 113.297,146.066 116,149.5C 116.72,151.112 116.554,152.612 115.5,154C 109.717,154.792 104.05,154.292 98.5,152.5C 92.9885,154.21 87.3219,154.877 81.5,154.5C 80.4582,149.867 82.1249,146.701 86.5,145C 88.743,143.864 91.0763,143.03 93.5,142.5 Z"/></g>
<g><path style="opacity:1" fill="#a86a4d" d="M 142.5,122.5 C 150.799,127.119 153.633,134.119 151,143.5C 150.269,145.899 149.102,148.065 147.5,150C 143.427,152.847 139.094,155.014 134.5,156.5C 134.461,155.417 134.127,154.417 133.5,153.5C 134.025,152.808 134.692,152.308 135.5,152C 135.108,149.646 135.108,147.146 135.5,144.5C 134.209,144.737 133.209,144.404 132.5,143.5C 135.044,143.896 137.211,143.229 139,141.5C 139.99,135 141.157,128.667 142.5,122.5 Z"/></g>
<g><path style="opacity:1" fill="#eb9f5f" d="M 62.5,160.5 C 62.5,161.833 62.5,163.167 62.5,164.5C 64.7354,164.205 66.7354,164.539 68.5,165.5C 67.5661,167.239 67.5661,168.905 68.5,170.5C 72.8558,172.34 76.8558,174.674 80.5,177.5C 82.8337,180.666 85.6671,183.333 89,185.5C 89.4993,190.489 89.6659,195.489 89.5,200.5C 82.2585,202.141 74.9251,203.475 67.5,204.5C 67.4538,199.599 66.4538,194.599 64.5,189.5C 64.0431,188.702 63.3764,188.369 62.5,188.5C 61.076,179.898 60.4094,171.232 60.5,162.5C 60.5,161.167 61.1667,160.5 62.5,160.5 Z"/></g>
<g><path style="opacity:1" fill="#bed0df" d="M 60.5,162.5 C 60.4094,171.232 61.076,179.898 62.5,188.5C 62.4431,189.609 62.1098,190.609 61.5,191.5C 60.5,191.167 59.8333,190.5 59.5,189.5C 56.3436,181.192 52.677,173.192 48.5,165.5C 49.6896,162.795 51.8563,161.128 55,160.5C 56.5671,161.856 58.4004,162.523 60.5,162.5 Z"/></g>
<g><path style="opacity:1" fill="#becfdd" d="M 132.5,161.5 C 136.671,162.537 137.671,164.537 135.5,167.5C 132.608,170.271 129.942,173.271 127.5,176.5C 126.517,172.702 126.183,168.702 126.5,164.5C 128.517,163.471 130.517,162.471 132.5,161.5 Z"/></g>
<g><path style="opacity:1" fill="#aebdca" d="M 76.5,165.5 C 82.3874,168.695 88.2207,172.028 94,175.5C 98.4784,171.695 102.978,168.028 107.5,164.5C 111.702,164.183 115.702,164.517 119.5,165.5C 114.514,169.155 109.847,173.155 105.5,177.5C 103.201,178.778 100.868,180.111 98.5,181.5C 96.5414,180.252 95.0414,178.585 94,176.5C 92.5771,178.345 91.4104,180.345 90.5,182.5C 87.1331,180.775 83.7997,179.108 80.5,177.5C 76.8558,174.674 72.8558,172.34 68.5,170.5C 67.5661,168.905 67.5661,167.239 68.5,165.5C 71.1667,164.167 73.8333,164.167 76.5,165.5 Z"/></g>
<g><path style="opacity:1" fill="#d5b8a1" d="M 125.5,164.5 C 125.833,164.5 126.167,164.5 126.5,164.5C 126.183,168.702 126.517,172.702 127.5,176.5C 127.167,177.5 126.5,178.167 125.5,178.5C 125.5,173.833 125.5,169.167 125.5,164.5 Z"/></g>
<g><path style="opacity:1" fill="#ea9f5f" d="M 125.5,164.5 C 125.5,169.167 125.5,173.833 125.5,178.5C 125.5,183.5 125.5,188.5 125.5,193.5C 125.5,195.5 125.5,197.5 125.5,199.5C 117.252,200.469 108.918,200.802 100.5,200.5C 99.8333,200.5 99.5,200.167 99.5,199.5C 99.7454,194.946 99.4121,190.446 98.5,186C 100.654,183.013 102.987,180.18 105.5,177.5C 109.847,173.155 114.514,169.155 119.5,165.5C 121.379,164.659 123.379,164.325 125.5,164.5 Z"/></g>
<g><path style="opacity:1" fill="#b97656" d="M 48.5,165.5 C 52.677,173.192 56.3436,181.192 59.5,189.5C 55.9506,190.881 52.7839,192.881 50,195.5C 49.5065,197.134 49.3398,198.801 49.5,200.5C 45.2778,212.282 36.9445,216.782 24.5,214C 18.1862,210.517 15.1862,205.35 15.5,198.5C 17.1396,194.559 19.3063,190.892 22,187.5C 30.6978,179.772 39.5311,172.439 48.5,165.5 Z"/></g>
<g><path style="opacity:1" fill="#bd7858" d="M 135.5,167.5 C 140.684,172.166 145.184,177.499 149,183.5C 154.471,186.498 157.971,191.165 159.5,197.5C 158.368,199.467 158.701,201.3 160.5,203C 159.551,203.617 158.718,203.451 158,202.5C 154.65,210.258 148.816,213.425 140.5,212C 137.833,210 135.167,208 132.5,206C 131.552,205.517 130.552,205.351 129.5,205.5C 129.795,203.265 129.461,201.265 128.5,199.5C 128.539,196.911 127.539,194.911 125.5,193.5C 125.5,188.5 125.5,183.5 125.5,178.5C 126.5,178.167 127.167,177.5 127.5,176.5C 129.942,173.271 132.608,170.271 135.5,167.5 Z"/></g>
<g><path style="opacity:1" fill="#92573b" d="M 76.5,165.5 C 86.6532,164.506 96.9865,164.172 107.5,164.5C 102.978,168.028 98.4784,171.695 94,175.5C 88.2207,172.028 82.3874,168.695 76.5,165.5 Z"/></g>
<g><path style="opacity:1" fill="#e4edf4" d="M 105.5,177.5 C 102.987,180.18 100.654,183.013 98.5,186C 99.4121,190.446 99.7454,194.946 99.5,199.5C 96.1401,199.616 92.8067,199.949 89.5,200.5C 89.6659,195.489 89.4993,190.489 89,185.5C 85.6671,183.333 82.8337,180.666 80.5,177.5C 83.7997,179.108 87.1331,180.775 90.5,182.5C 91.4104,180.345 92.5771,178.345 94,176.5C 95.0414,178.585 96.5414,180.252 98.5,181.5C 100.868,180.111 103.201,178.778 105.5,177.5 Z"/></g>
<g><path style="opacity:1" fill="#d38a4e" d="M 62.5,188.5 C 63.3764,188.369 64.0431,188.702 64.5,189.5C 66.4538,194.599 67.4538,199.599 67.5,204.5C 74.9251,203.475 82.2585,202.141 89.5,200.5C 89.7471,203.939 89.4137,207.272 88.5,210.5C 81.0505,212.122 73.7172,214.122 66.5,216.5C 65.9603,207.801 64.2936,199.468 61.5,191.5C 62.1098,190.609 62.4431,189.609 62.5,188.5 Z"/></g>
<g><path style="opacity:1" fill="#bed0df" d="M 99.5,199.5 C 99.5,200.167 99.8333,200.5 100.5,200.5C 101.159,203.455 101.492,206.455 101.5,209.5C 97.1018,209.294 92.7685,209.627 88.5,210.5C 89.4137,207.272 89.7471,203.939 89.5,200.5C 92.8067,199.949 96.1401,199.616 99.5,199.5 Z"/></g>
<g><path style="opacity:1" fill="#d48a4a" d="M 125.5,199.5 C 125.044,203.664 124.378,207.664 123.5,211.5C 116.354,210.384 109.02,209.717 101.5,209.5C 101.492,206.455 101.159,203.455 100.5,200.5C 108.918,200.802 117.252,200.469 125.5,199.5 Z"/></g>
<g><path style="opacity:1" fill="#a2684d" d="M 15.5,198.5 C 15.1862,205.35 18.1862,210.517 24.5,214C 36.9445,216.782 45.2778,212.282 49.5,200.5C 50.0688,205.777 49.2355,210.777 47,215.5C 44.834,217.121 42.334,217.955 39.5,218C 36.6558,220.181 33.8224,222.347 31,224.5C 25.288,221.466 20.288,217.466 16,212.5C 12.9131,207.809 12.7465,203.142 15.5,198.5 Z"/></g>
<g><path style="opacity:1" fill="#6668c0" d="M 101.5,209.5 C 109.02,209.717 116.354,210.384 123.5,211.5C 124.528,216.745 125.195,222.079 125.5,227.5C 118.167,227.5 110.833,227.5 103.5,227.5C 103.374,221.233 100.707,216.567 95.5,213.5C 90.8776,214.308 87.5443,216.808 85.5,221C 81.8333,221.333 78.1667,221.667 74.5,222C 73.5842,222.278 72.9175,222.778 72.5,223.5C 70.8606,221.194 68.8606,219.194 66.5,217.5C 66.5,217.167 66.5,216.833 66.5,216.5C 73.7172,214.122 81.0505,212.122 88.5,210.5C 92.7685,209.627 97.1018,209.294 101.5,209.5 Z"/></g>
<g><path style="opacity:1" fill="#5759aa" d="M 103.5,227.5 C 102.833,227.5 102.167,227.5 101.5,227.5C 100.717,225.657 100.05,223.657 99.5,221.5C 96.8333,220.167 94.1667,220.167 91.5,221.5C 89.2172,226.423 86.2172,230.756 82.5,234.5C 78.4754,231.442 75.1421,227.775 72.5,223.5C 72.9175,222.778 73.5842,222.278 74.5,222C 78.1667,221.667 81.8333,221.333 85.5,221C 87.5443,216.808 90.8776,214.308 95.5,213.5C 100.707,216.567 103.374,221.233 103.5,227.5 Z"/></g>
<g><path style="opacity:1" fill="#a76b50" d="M 159.5,197.5 C 164.088,205.458 163.421,212.958 157.5,220C 152.591,222.874 147.424,225.04 142,226.5C 138.436,225.44 135.936,223.107 134.5,219.5C 128.973,218.144 126.307,214.644 126.5,209C 126.622,205.682 127.289,202.515 128.5,199.5C 129.461,201.265 129.795,203.265 129.5,205.5C 130.552,205.351 131.552,205.517 132.5,206C 135.167,208 137.833,210 140.5,212C 148.816,213.425 154.65,210.258 158,202.5C 158.718,203.451 159.551,203.617 160.5,203C 158.701,201.3 158.368,199.467 159.5,197.5 Z"/></g>
<g><path style="opacity:0.993" fill="#edebeb" d="M 66.5,217.5 C 68.8606,219.194 70.8606,221.194 72.5,223.5C 75.1421,227.775 78.4754,231.442 82.5,234.5C 81.4282,239.405 80.7615,244.405 80.5,249.5C 72.4698,241.13 65.1365,232.13 58.5,222.5C 60.822,220.336 63.4887,218.669 66.5,217.5 Z"/></g>
<g><path style="opacity:0.993" fill="#cb8d5b" d="M 58.5,222.5 C 65.1365,232.13 72.4698,241.13 80.5,249.5C 79.4264,250.885 78.0931,252.051 76.5,253C 75.8333,253.667 75.1667,253.667 74.5,253C 67.6667,244.833 60.8333,236.667 54,228.5C 53.3333,227.5 53.3333,226.5 54,225.5C 55.6147,224.614 57.1147,223.614 58.5,222.5 Z"/></g>
<g><path style="opacity:1" fill="#4b4da7" d="M 101.5,227.5 C 102.167,227.5 102.833,227.5 103.5,227.5C 110.833,227.5 118.167,227.5 125.5,227.5C 126.207,230.786 126.54,234.119 126.5,237.5C 118.5,237.5 110.5,237.5 102.5,237.5C 101.793,234.214 101.46,230.881 101.5,227.5 Z"/></g>
<g><path style="opacity:1" fill="#eaeaea" d="M 102.5,237.5 C 110.5,237.5 118.5,237.5 126.5,237.5C 131.46,240.792 135.793,244.792 139.5,249.5C 127.5,249.5 115.5,249.5 103.5,249.5C 103.354,245.481 103.021,241.481 102.5,237.5 Z"/></g>
<g><path style="opacity:1" fill="#c88954" d="M 103.5,249.5 C 115.5,249.5 127.5,249.5 139.5,249.5C 140.461,251.265 140.795,253.265 140.5,255.5C 128.5,255.5 116.5,255.5 104.5,255.5C 104.483,253.435 104.15,251.435 103.5,249.5 Z"/></g>
</svg>
