<?xml version="1.0" encoding="UTF-8"?>
<!DOCTYPE svg PUBLIC "-//W3C//DTD SVG 1.1//EN" "http://www.w3.org/Graphics/SVG/1.1/DTD/svg11.dtd">
<svg xmlns="http://www.w3.org/2000/svg" version="1.1" width="192px" height="256px" style="shape-rendering:geometricPrecision; text-rendering:geometricPrecision; image-rendering:optimizeQuality; fill-rule:evenodd; clip-rule:evenodd" xmlns:xlink="http://www.w3.org/1999/xlink">
<g><path style="opacity:0.992" fill="#bed3e4" d="M 142.5,84.5 C 140.61,84.2965 139.11,84.9632 138,86.5C 137.501,90.4862 137.334,94.4862 137.5,98.5C 134.615,98.8064 131.948,98.4731 129.5,97.5C 130.239,97.631 130.906,97.4643 131.5,97C 125.195,83.6729 115.195,80.0063 101.5,86C 99.2941,88.0367 97.2941,90.2034 95.5,92.5C 93.0225,92.9492 91.0225,92.2825 89.5,90.5C 93.2835,85.36 93.2835,80.36 89.5,75.5C 102.292,66.1684 115.958,65.0017 130.5,72C 135.377,75.3761 139.377,79.5428 142.5,84.5 Z"/></g>
<g><path style="opacity:1" fill="#fafcfd" d="M 129.5,97.5 C 118.049,96.3196 106.716,94.653 95.5,92.5C 97.2941,90.2034 99.2941,88.0367 101.5,86C 115.195,80.0063 125.195,83.6729 131.5,97C 130.906,97.4643 130.239,97.631 129.5,97.5 Z"/></g>
<g><path style="opacity:1" fill="#518fbf" d="M 89.5,75.5 C 93.2835,80.36 93.2835,85.36 89.5,90.5C 91.0225,92.2825 93.0225,92.9492 95.5,92.5C 106.716,94.653 118.049,96.3196 129.5,97.5C 131.948,98.4731 134.615,98.8064 137.5,98.5C 137.334,94.4862 137.501,90.4862 138,86.5C 139.11,84.9632 140.61,84.2965 142.5,84.5C 144.722,84.178 146.556,84.8446 148,86.5C 148.994,91.118 149.494,95.7847 149.5,100.5C 151.604,100.201 153.604,100.534 155.5,101.5C 153.833,107.5 152.167,113.5 150.5,119.5C 153.62,121.819 156.453,124.486 159,127.5C 160.009,129.025 160.509,130.692 160.5,132.5C 159.504,132.586 158.671,132.252 158,131.5C 157,133.5 156,135.5 155,137.5C 154.562,132.936 152.395,129.603 148.5,127.5C 147.365,129.707 146.699,132.04 146.5,134.5C 133.644,138.024 125.977,146.357 123.5,159.5C 111.487,158.198 99.4869,156.698 87.5,155C 86.0267,154.29 85.3601,153.124 85.5,151.5C 85.9678,140.427 81.3011,132.427 71.5,127.5C 70.5067,132.12 70.1734,136.786 70.5,141.5C 67.2084,141.353 64.2084,140.353 61.5,138.5C 55.9055,133.43 54.0722,127.097 56,119.5C 58.5457,112.813 63.379,109.48 70.5,109.5C 71.1652,102.52 71.4985,95.5197 71.5,88.5C 73.5988,89.2309 75.5988,89.2309 77.5,88.5C 78.903,85.1248 80.403,81.7914 82,78.5C 84.255,76.9451 86.755,75.9451 89.5,75.5 Z"/></g>
<g><path style="opacity:1" fill="#4b7da5" d="M 99.5,117.5 C 98.1242,125.952 101.624,130.952 110,132.5C 116.926,131.412 120.426,127.412 120.5,120.5C 122.5,120.5 124.5,120.5 126.5,120.5C 123.872,135.148 115.539,139.981 101.5,135C 95.3387,130.357 93.0054,124.191 94.5,116.5C 96.2161,116.629 97.8828,116.962 99.5,117.5 Z"/></g>
<g><path style="opacity:1" fill="#f7c915" d="M 99.5,117.5 C 102.545,117.508 105.545,117.841 108.5,118.5C 106.762,123.933 108.762,126.099 114.5,125C 115.579,123.141 116.912,121.641 118.5,120.5C 119.167,120.5 119.833,120.5 120.5,120.5C 120.426,127.412 116.926,131.412 110,132.5C 101.624,130.952 98.1242,125.952 99.5,117.5 Z"/></g>
<g><path style="opacity:1" fill="#faf7ea" d="M 108.5,118.5 C 111.983,119.01 115.316,119.677 118.5,120.5C 116.912,121.641 115.579,123.141 114.5,125C 108.762,126.099 106.762,123.933 108.5,118.5 Z"/></g>
<g><path style="opacity:1" fill="#334d62" d="M 85.5,151.5 C 84.596,152.209 84.2627,153.209 84.5,154.5C 79.5296,153.647 74.5296,152.98 69.5,152.5C 69.5,150.833 69.5,149.167 69.5,147.5C 67.6096,147.297 66.1096,147.963 65,149.5C 64.5007,154.489 64.3341,159.489 64.5,164.5C 61.8447,163.999 59.678,162.666 58,160.5C 52.6599,163.317 47.4933,162.984 42.5,159.5C 41.2211,156.605 40.2211,153.605 39.5,150.5C 39.9638,147.583 40.9638,144.916 42.5,142.5C 43.0577,141.21 44.0577,140.377 45.5,140C 49.5351,139.303 53.5351,139.47 57.5,140.5C 59.1705,140.332 60.5039,139.665 61.5,138.5C 64.2084,140.353 67.2084,141.353 70.5,141.5C 70.1734,136.786 70.5067,132.12 71.5,127.5C 81.3011,132.427 85.9678,140.427 85.5,151.5 Z"/></g>
<g><path style="opacity:1" fill="#334d62" d="M 146.5,134.5 C 145.082,140.602 143.415,146.602 141.5,152.5C 143.557,159.229 142.557,165.396 138.5,171C 144.121,171.46 147.788,174.293 149.5,179.5C 150.423,186.78 147.757,192.113 141.5,195.5C 133.56,196.375 128.56,193.042 126.5,185.5C 126.694,181.117 128.361,177.283 131.5,174C 130.572,173.612 129.905,172.945 129.5,172C 131.205,168.346 132.205,164.513 132.5,160.5C 129.287,160.81 126.287,160.477 123.5,159.5C 125.977,146.357 133.644,138.024 146.5,134.5 Z"/></g>
<g><path style="opacity:1" fill="#345167" d="M 93.5,140.5 C 98.4106,141.116 103.077,142.616 107.5,145C 109,147.167 108.5,148.667 106,149.5C 102.558,147.862 99.058,146.362 95.5,145C 93.9632,143.89 93.2965,142.39 93.5,140.5 Z"/></g>
<g><path style="opacity:1" fill="#4b7fa7" d="M 160.5,132.5 C 161.776,146.227 155.443,152.894 141.5,152.5C 143.415,146.602 145.082,140.602 146.5,134.5C 146.699,132.04 147.365,129.707 148.5,127.5C 152.395,129.603 154.562,132.936 155,137.5C 156,135.5 157,133.5 158,131.5C 158.671,132.252 159.504,132.586 160.5,132.5 Z"/></g>
<g><path style="opacity:1" fill="#42749c" d="M 47.5,144.5 C 55.2962,143.405 57.6296,146.572 54.5,154C 47.7352,156.243 44.9019,153.743 46,146.5C 46.7172,145.956 47.2172,145.289 47.5,144.5 Z"/></g>
<g><path style="opacity:1" fill="#487ca5" d="M 42.5,142.5 C 40.9638,144.916 39.9638,147.583 39.5,150.5C 40.2211,153.605 41.2211,156.605 42.5,159.5C 37.9247,159.36 34.9247,161.36 33.5,165.5C 30.4456,167.694 27.1122,169.361 23.5,170.5C 16.9379,169.266 13.6046,165.266 13.5,158.5C 14.6895,154.974 16.6895,151.974 19.5,149.5C 26.529,145.382 34.1956,143.048 42.5,142.5 Z"/></g>
<g><path style="opacity:0.956" fill="#aabdcc" d="M 19.5,149.5 C 16.6895,151.974 14.6895,154.974 13.5,158.5C 11.9102,158.628 10.5769,159.295 9.5,160.5C 8.89945,162.725 8.56612,164.891 8.5,167C 5.57684,168.839 2.57684,169.339 -0.5,168.5C -0.5,165.167 -0.5,161.833 -0.5,158.5C 3.80597,150.01 10.4726,147.01 19.5,149.5 Z"/></g>
<g><path style="opacity:1" fill="#4679a1" d="M 85.5,151.5 C 85.3601,153.124 86.0267,154.29 87.5,155C 99.4869,156.698 111.487,158.198 123.5,159.5C 126.287,160.477 129.287,160.81 132.5,160.5C 132.205,164.513 131.205,168.346 129.5,172C 129.905,172.945 130.572,173.612 131.5,174C 128.361,177.283 126.694,181.117 126.5,185.5C 125.883,185.389 125.383,185.056 125,184.5C 123.963,187.405 122.796,190.239 121.5,193C 128.369,199.702 135.036,206.535 141.5,213.5C 139.066,216.697 136.399,219.697 133.5,222.5C 131.016,220.517 128.683,218.35 126.5,216C 119.302,214.177 116.302,217.01 117.5,224.5C 112.707,220.879 108.04,217.046 103.5,213C 95.1427,211.545 86.8094,210.045 78.5,208.5C 69.3585,212.741 60.0252,216.407 50.5,219.5C 48.8793,216.259 47.2126,212.925 45.5,209.5C 48.421,207.911 51.421,206.411 54.5,205C 56.4782,202.503 56.9782,199.669 56,196.5C 54.2811,195.131 52.4478,194.131 50.5,193.5C 55.104,190.86 59.7707,188.194 64.5,185.5C 64.7759,178.569 64.7759,171.569 64.5,164.5C 64.3341,159.489 64.5007,154.489 65,149.5C 66.1096,147.963 67.6096,147.297 69.5,147.5C 69.5,149.167 69.5,150.833 69.5,152.5C 74.5296,152.98 79.5296,153.647 84.5,154.5C 84.2627,153.209 84.596,152.209 85.5,151.5 Z"/></g>
<g><path style="opacity:1" fill="#334c61" d="M 90.5,160.5 C 107.082,160.589 114.249,168.923 112,185.5C 111.484,188.034 110.317,190.2 108.5,192C 112.377,193.369 116.377,194.202 120.5,194.5C 120.037,197.482 119.704,200.482 119.5,203.5C 101.065,201.57 82.7312,198.904 64.5,195.5C 64.5079,192.455 64.8413,189.455 65.5,186.5C 69.5191,186.646 73.5191,186.979 77.5,187.5C 74.6216,174.925 78.955,165.925 90.5,160.5 Z"/></g>
<g><path style="opacity:0.989" fill="#a5b7c5" d="M 33.5,165.5 C 34.0265,176.474 28.8598,182.807 18,184.5C 14.6013,184.208 11.7679,182.875 9.5,180.5C 10.8333,178.5 12.1667,176.5 13.5,174.5C 16.0567,174.218 18.7234,174.051 21.5,174C 22.8228,173.184 23.4894,172.017 23.5,170.5C 27.1122,169.361 30.4456,167.694 33.5,165.5 Z"/></g>
<g><path style="opacity:1" fill="#f86496" d="M 95.5,168.5 C 96.2389,168.369 96.9056,168.536 97.5,169C 99.5486,171.593 101.715,174.093 104,176.5C 103.53,180.627 102.03,184.461 99.5,188C 95.4631,188.607 91.4631,188.44 87.5,187.5C 86.8201,182.787 86.8201,178.12 87.5,173.5C 90.568,172.309 93.2346,170.642 95.5,168.5 Z"/></g>
<g><path style="opacity:0.986" fill="#adbfce" d="M 173.5,182.5 C 170.129,181.284 166.795,180.284 163.5,179.5C 164.591,176.572 166.591,174.406 169.5,173C 180.388,169.218 187.388,172.718 190.5,183.5C 187.762,183.851 185.096,184.518 182.5,185.5C 180.316,181.649 177.316,180.649 173.5,182.5 Z"/></g>
<g><path style="opacity:1" fill="#407197" d="M 135.5,179.5 C 141.85,178.525 144.35,181.192 143,187.5C 139.667,191.5 136.333,191.5 133,187.5C 132.018,184.225 132.851,181.559 135.5,179.5 Z"/></g>
<g><path style="opacity:0.924" fill="#5690be" d="M 163.5,179.5 C 166.795,180.284 170.129,181.284 173.5,182.5C 177.042,187.629 177.375,192.962 174.5,198.5C 173.833,198.5 173.167,198.5 172.5,198.5C 172.586,197.504 172.252,196.671 171.5,196C 170.234,195.691 169.067,195.191 168,194.5C 167.891,187.898 164.724,183.898 158.5,182.5C 160.332,181.752 161.999,180.752 163.5,179.5 Z"/></g>
<g><path style="opacity:1" fill="#427298" d="M 149.5,179.5 C 152.402,180.784 155.402,181.784 158.5,182.5C 164.724,183.898 167.891,187.898 168,194.5C 169.067,195.191 170.234,195.691 171.5,196C 172.252,196.671 172.586,197.504 172.5,198.5C 170.044,200.868 167.044,201.868 163.5,201.5C 155.985,200.121 148.651,198.121 141.5,195.5C 147.757,192.113 150.423,186.78 149.5,179.5 Z"/></g>
<g><path style="opacity:1" fill="#a4b5c3" d="M 163.5,201.5 C 167.044,201.868 170.044,200.868 172.5,198.5C 173.167,198.5 173.833,198.5 174.5,198.5C 175.251,199.573 176.251,199.74 177.5,199C 179.644,197.854 181.477,196.354 183,194.5C 185.433,195.479 187.933,196.145 190.5,196.5C 189.875,202.629 186.541,206.462 180.5,208C 173.278,209.717 167.611,207.55 163.5,201.5 Z"/></g>
<g><path style="opacity:1" fill="#324b5f" d="M 50.5,193.5 C 52.4478,194.131 54.2811,195.131 56,196.5C 56.9782,199.669 56.4782,202.503 54.5,205C 51.421,206.411 48.421,207.911 45.5,209.5C 47.2126,212.925 48.8793,216.259 50.5,219.5C 48.7721,224.515 46.9388,229.515 45,234.5C 43.013,236.088 40.8463,236.921 38.5,237C 33.7732,226.213 28.7732,215.546 23.5,205C 32.2703,200.614 41.2703,196.781 50.5,193.5 Z"/></g>
<g><path style="opacity:1" fill="#314a5d" d="M 141.5,213.5 C 147.176,213.334 152.843,213.501 158.5,214C 159.833,215.333 161.167,216.667 162.5,218C 154.322,227.011 145.988,235.844 137.5,244.5C 130.479,238.146 123.812,231.479 117.5,224.5C 116.302,217.01 119.302,214.177 126.5,216C 128.683,218.35 131.016,220.517 133.5,222.5C 136.399,219.697 139.066,216.697 141.5,213.5 Z"/></g>
</svg>
