<?xml version="1.0" encoding="UTF-8"?>
<!DOCTYPE svg PUBLIC "-//W3C//DTD SVG 1.1//EN" "http://www.w3.org/Graphics/SVG/1.1/DTD/svg11.dtd">
<svg xmlns="http://www.w3.org/2000/svg" version="1.1" width="192px" height="256px" style="shape-rendering:geometricPrecision; text-rendering:geometricPrecision; image-rendering:optimizeQuality; fill-rule:evenodd; clip-rule:evenodd" xmlns:xlink="http://www.w3.org/1999/xlink">
<g><path style="opacity:1" fill="#474c52" d="M 147.5,109.5 C 144.77,93.9137 136.104,82.747 121.5,76C 98.1678,67.2705 77.0011,70.7705 58,86.5C 56,89.1667 54,91.8333 52,94.5C 50.5565,98.6483 49.0565,102.648 47.5,106.5C 50.9468,77.0607 67.6134,61.7274 97.5,60.5C 119.613,60.7947 135.447,70.7947 145,90.5C 147.001,96.6731 147.834,103.006 147.5,109.5 Z"/></g>
<g><path style="opacity:1" fill="#3d3f42" d="M 147.5,109.5 C 147.5,109.833 147.5,110.167 147.5,110.5C 145.534,109.559 143.534,108.559 141.5,107.5C 139.717,109.023 139.051,111.023 139.5,113.5C 139.829,116.228 139.163,118.562 137.5,120.5C 134.742,122.048 132.242,121.715 130,119.5C 129.824,116.118 129.324,112.785 128.5,109.5C 127.571,110.689 127.238,112.022 127.5,113.5C 111.551,115.564 98.3844,110.564 88,98.5C 81.4583,102.76 74.2917,105.094 66.5,105.5C 67.0027,110.172 67.1694,114.839 67,119.5C 64.8646,121.278 62.3646,121.945 59.5,121.5C 58.1311,119.268 57.1311,116.934 56.5,114.5C 56.8076,112.076 56.4742,109.743 55.5,107.5C 52.8699,108.804 50.5366,110.47 48.5,112.5C 48.1667,110.5 47.8333,108.5 47.5,106.5C 49.0565,102.648 50.5565,98.6483 52,94.5C 54,91.8333 56,89.1667 58,86.5C 77.0011,70.7705 98.1678,67.2705 121.5,76C 136.104,82.747 144.77,93.9137 147.5,109.5 Z"/></g>
<g><path style="opacity:1" fill="#6f9eb9" d="M 87.5,77.5 C 97.6213,77.0057 107.621,77.839 117.5,80C 124.937,82.1137 130.604,86.4471 134.5,93C 134.167,93.5 133.833,94 133.5,94.5C 121.605,89.1898 109.105,86.8565 96,87.5C 84.5855,87.216 73.7522,89.5493 63.5,94.5C 62.4173,93.635 62.2506,92.635 63,91.5C 69.5456,83.8157 77.7122,79.149 87.5,77.5 Z"/></g>
<g><path style="opacity:1" fill="#bd7857" d="M 137.5,120.5 C 137.17,123.157 136.837,125.824 136.5,128.5C 136.585,130.333 137.252,131.666 138.5,132.5C 138.971,134.579 139.637,136.579 140.5,138.5C 138.801,138.34 137.134,138.506 135.5,139C 134.478,141.545 133.312,144.045 132,146.5C 128.962,149.369 126.129,152.369 123.5,155.5C 119.353,156.66 115.353,157.993 111.5,159.5C 110.833,160.167 110.167,160.833 109.5,161.5C 101.303,160.79 92.9696,159.956 84.5,159C 81.049,158.105 77.7157,156.938 74.5,155.5C 73.7095,154.599 72.7095,153.932 71.5,153.5C 67.1948,149.567 63.8614,144.901 61.5,139.5C 59.9547,138.548 58.288,138.215 56.5,138.5C 57.3627,136.579 58.0293,134.579 58.5,132.5C 59.7251,131.848 60.3917,130.681 60.5,129C 60.0828,126.502 59.7495,124.002 59.5,121.5C 62.3646,121.945 64.8646,121.278 67,119.5C 67.1694,114.839 67.0027,110.172 66.5,105.5C 74.2917,105.094 81.4583,102.76 88,98.5C 98.3844,110.564 111.551,115.564 127.5,113.5C 127.238,112.022 127.571,110.689 128.5,109.5C 129.324,112.785 129.824,116.118 130,119.5C 132.242,121.715 134.742,122.048 137.5,120.5 Z"/></g>
<g><path style="opacity:1" fill="#b07255" d="M 112.5,105.5 C 115.647,105.737 118.647,106.57 121.5,108C 118.178,109.392 114.845,109.559 111.5,108.5C 112.127,107.583 112.461,106.583 112.5,105.5 Z"/></g>
<g><path style="opacity:1" fill="#444142" d="M 70.5,108.5 C 76.905,109.034 83.2383,110.034 89.5,111.5C 89.1667,112.167 88.8333,112.833 88.5,113.5C 86.8333,113.833 85.1667,114.167 83.5,114.5C 78.8511,113.872 74.1844,113.539 69.5,113.5C 69.6287,111.784 69.962,110.117 70.5,108.5 Z"/></g>
<g><path style="opacity:1" fill="#b57455" d="M 56.5,114.5 C 52.7597,117.599 51.593,121.599 53,126.5C 54.3024,127.085 55.469,127.751 56.5,128.5C 54.8008,128.34 53.1341,128.506 51.5,129C 50.8906,130.948 50.224,132.782 49.5,134.5C 45.7075,129.118 44.5408,123.118 46,116.5C 46.6082,114.934 47.4415,113.6 48.5,112.5C 50.5366,110.47 52.8699,108.804 55.5,107.5C 56.4742,109.743 56.8076,112.076 56.5,114.5 Z"/></g>
<g><path style="opacity:1" fill="#b57455" d="M 147.5,110.5 C 152.833,118.5 152.833,126.5 147.5,134.5C 146.262,132.786 145.595,130.786 145.5,128.5C 143.833,128.5 142.167,128.5 140.5,128.5C 143.724,127.919 145.057,125.919 144.5,122.5C 144.64,118.443 142.974,115.443 139.5,113.5C 139.051,111.023 139.717,109.023 141.5,107.5C 143.534,108.559 145.534,109.559 147.5,110.5 Z"/></g>
<g><path style="opacity:1" fill="#a7603f" d="M 139.5,113.5 C 142.974,115.443 144.64,118.443 144.5,122.5C 145.057,125.919 143.724,127.919 140.5,128.5C 138.896,129.287 138.229,130.62 138.5,132.5C 137.252,131.666 136.585,130.333 136.5,128.5C 136.837,125.824 137.17,123.157 137.5,120.5C 139.163,118.562 139.829,116.228 139.5,113.5 Z"/></g>
<g><path style="opacity:1" fill="#a65f3e" d="M 56.5,114.5 C 57.1311,116.934 58.1311,119.268 59.5,121.5C 59.7495,124.002 60.0828,126.502 60.5,129C 60.3917,130.681 59.7251,131.848 58.5,132.5C 58.7709,130.62 58.1042,129.287 56.5,128.5C 55.469,127.751 54.3024,127.085 53,126.5C 51.593,121.599 52.7597,117.599 56.5,114.5 Z"/></g>
<g><path style="opacity:1" fill="#414144" d="M 78.5,117.5 C 76.1165,118.885 74.4499,120.885 73.5,123.5C 72.3104,121.645 70.9771,119.812 69.5,118C 72.4816,117.502 75.4816,117.335 78.5,117.5 Z"/></g>
<g><path style="opacity:1" fill="#eceae9" d="M 118.5,117.5 C 121.29,118.967 122.956,121.3 123.5,124.5C 123.519,132.642 119.519,135.808 111.5,134C 107.329,130.146 106.496,125.646 109,120.5C 111.642,117.971 114.808,116.971 118.5,117.5 Z"/></g>
<g><path style="opacity:1" fill="#444344" d="M 118.5,117.5 C 121.518,117.335 124.518,117.502 127.5,118C 125.372,119.792 124.039,121.958 123.5,124.5C 122.956,121.3 121.29,118.967 118.5,117.5 Z"/></g>
<g><path style="opacity:1" fill="#f0eeed" d="M 78.5,117.5 C 88.3599,117.543 91.5265,122.21 88,131.5C 84.6269,134.886 80.7936,135.386 76.5,133C 73.9712,130.358 72.9712,127.192 73.5,123.5C 74.4499,120.885 76.1165,118.885 78.5,117.5 Z"/></g>
<g><path style="opacity:1" fill="#3e4144" d="M 80.5,119.5 C 83.5468,118.855 85.7135,119.855 87,122.5C 88.0037,125.993 87.5037,129.159 85.5,132C 82.4718,133.14 80.3051,132.306 79,129.5C 78.1529,125.928 78.6529,122.594 80.5,119.5 Z"/></g>
<g><path style="opacity:1" fill="#404245" d="M 111.5,119.5 C 114.547,118.855 116.713,119.855 118,122.5C 118.744,125.871 118.244,129.037 116.5,132C 113.975,132.896 111.808,132.396 110,130.5C 109.013,126.525 109.513,122.859 111.5,119.5 Z"/></g>
<g><path style="opacity:1" fill="#e1995d" d="M 56.5,128.5 C 58.1042,129.287 58.7709,130.62 58.5,132.5C 58.0293,134.579 57.3627,136.579 56.5,138.5C 55.8784,141.776 53.8784,143.109 50.5,142.5C 49.0532,141.866 48.3866,140.699 48.5,139C 48.7728,137.467 49.1062,135.967 49.5,134.5C 50.224,132.782 50.8906,130.948 51.5,129C 53.1341,128.506 54.8008,128.34 56.5,128.5 Z"/></g>
<g><path style="opacity:1" fill="#965536" d="M 94.5,127.5 C 98.6034,126.769 102.103,127.769 105,130.5C 105.63,132.903 104.797,134.737 102.5,136C 99.8333,136.667 97.1667,136.667 94.5,136C 90.6054,133.178 90.6054,130.345 94.5,127.5 Z"/></g>
<g><path style="opacity:1" fill="#e2995e" d="M 140.5,128.5 C 142.167,128.5 143.833,128.5 145.5,128.5C 145.595,130.786 146.262,132.786 147.5,134.5C 147.894,135.967 148.227,137.467 148.5,139C 148.613,140.699 147.947,141.866 146.5,142.5C 143.122,143.109 141.122,141.776 140.5,138.5C 139.637,136.579 138.971,134.579 138.5,132.5C 138.229,130.62 138.896,129.287 140.5,128.5 Z"/></g>
<g><path style="opacity:1" fill="#dab8a7" d="M 87.5,141.5 C 92.6405,140.512 97.9738,140.179 103.5,140.5C 103.802,143.059 103.468,145.393 102.5,147.5C 102.5,145.5 102.5,143.5 102.5,141.5C 97.5,141.5 92.5,141.5 87.5,141.5 Z"/></g>
<g><path style="opacity:1" fill="#fefdfd" d="M 87.5,141.5 C 92.5,141.5 97.5,141.5 102.5,141.5C 102.5,143.5 102.5,145.5 102.5,147.5C 97.5,147.5 92.5,147.5 87.5,147.5C 85.0062,145.406 85.0062,143.406 87.5,141.5 Z"/></g>
<g><path style="opacity:1" fill="#a86140" d="M 103.5,140.5 C 111.028,139.817 112.861,142.484 109,148.5C 101.423,155.37 94.2562,155.037 87.5,147.5C 92.5,147.5 97.5,147.5 102.5,147.5C 103.468,145.393 103.802,143.059 103.5,140.5 Z"/></g>
<g><path style="opacity:1" fill="#3d3f42" d="M 56.5,138.5 C 58.288,138.215 59.9547,138.548 61.5,139.5C 63.8614,144.901 67.1948,149.567 71.5,153.5C 68.232,155.134 64.8987,156.801 61.5,158.5C 56.3818,158.473 51.0485,158.306 45.5,158C 42.8003,157.051 41.967,155.217 43,152.5C 45.7167,149.29 48.2167,145.956 50.5,142.5C 53.8784,143.109 55.8784,141.776 56.5,138.5 Z"/></g>
<g><path style="opacity:1" fill="#3b3e40" d="M 140.5,138.5 C 141.122,141.776 143.122,143.109 146.5,142.5C 148.783,145.956 151.283,149.29 154,152.5C 154.72,154.112 154.554,155.612 153.5,157C 144.397,159.325 135.563,158.492 127,154.5C 126.648,156.247 126.148,157.914 125.5,159.5C 124.655,158.329 123.989,156.995 123.5,155.5C 126.129,152.369 128.962,149.369 132,146.5C 133.312,144.045 134.478,141.545 135.5,139C 137.134,138.506 138.801,138.34 140.5,138.5 Z"/></g>
<g><path style="opacity:1" fill="#3dba78" d="M 71.5,153.5 C 72.7095,153.932 73.7095,154.599 74.5,155.5C 74.5,156.833 74.5,158.167 74.5,159.5C 72.3509,169.625 76.3509,176.291 86.5,179.5C 83.333,179.4 80.333,180.067 77.5,181.5C 76.4173,182.365 76.2506,183.365 77,184.5C 81.753,185.394 86.5864,186.06 91.5,186.5C 97.864,185.159 104.197,183.659 110.5,182C 111.552,180.284 110.886,179.284 108.5,179C 105.518,178.502 102.518,178.335 99.5,178.5C 108.277,175.295 112.277,168.962 111.5,159.5C 115.353,157.993 119.353,156.66 123.5,155.5C 123.989,156.995 124.655,158.329 125.5,159.5C 128.142,163.148 130.809,166.815 133.5,170.5C 134.391,171.59 135.391,171.59 136.5,170.5C 137.973,173.28 139.307,176.113 140.5,179C 139.906,179.464 139.239,179.631 138.5,179.5C 138.167,179.5 137.833,179.5 137.5,179.5C 138.073,176.383 136.906,174.383 134,173.5C 129.126,175.363 124.459,177.697 120,180.5C 119.667,180.167 119.333,179.833 119,179.5C 114.391,183.823 112.225,189.157 112.5,195.5C 100.5,196.5 88.5,197.5 76.5,198.5C 76.2691,193.206 74.2691,188.706 70.5,185C 71.0773,180.101 68.9106,176.601 64,174.5C 61.6349,175.289 59.4682,176.456 57.5,178C 56.5,178.667 55.5,178.667 54.5,178C 51.6286,175.297 48.9619,172.464 46.5,169.5C 50.6034,164.615 55.6034,160.948 61.5,158.5C 64.8987,156.801 68.232,155.134 71.5,153.5 Z"/></g>
<g><path style="opacity:1" fill="#a6694d" d="M 74.5,155.5 C 77.7157,156.938 81.049,158.105 84.5,159C 92.9696,159.956 101.303,160.79 109.5,161.5C 103.446,173.754 94.1124,176.92 81.5,171C 77.4985,168.161 75.1652,164.327 74.5,159.5C 74.5,158.167 74.5,156.833 74.5,155.5 Z"/></g>
<g><path style="opacity:1" fill="#e8e7e5" d="M 74.5,159.5 C 75.1652,164.327 77.4985,168.161 81.5,171C 94.1124,176.92 103.446,173.754 109.5,161.5C 110.167,160.833 110.833,160.167 111.5,159.5C 112.277,168.962 108.277,175.295 99.5,178.5C 95.2147,179.295 90.8814,179.628 86.5,179.5C 76.3509,176.291 72.3509,169.625 74.5,159.5 Z"/></g>
<g><path style="opacity:1" fill="#2fa364" d="M 46.5,169.5 C 48.9619,172.464 51.6286,175.297 54.5,178C 55.5,178.667 56.5,178.667 57.5,178C 59.4682,176.456 61.6349,175.289 64,174.5C 68.9106,176.601 71.0773,180.101 70.5,185C 74.2691,188.706 76.2691,193.206 76.5,198.5C 74.5,198.5 72.5,198.5 70.5,198.5C 70.0537,192.161 68.387,186.161 65.5,180.5C 63.7362,183.822 61.0695,186.989 57.5,190C 56.4232,190.47 55.4232,190.303 54.5,189.5C 50.2015,184.206 45.2015,179.539 39.5,175.5C 39.3893,174.883 39.056,174.383 38.5,174C 40.4521,171.926 42.2854,169.759 44,167.5C 44.7083,168.381 45.5416,169.047 46.5,169.5 Z"/></g>
<g><path style="opacity:1" fill="#29a663" d="M 137.5,179.5 C 131.83,182.333 126.497,185.666 121.5,189.5C 120.167,189.5 118.833,189.5 117.5,189.5C 117.5,191.5 117.5,193.5 117.5,195.5C 115.833,195.5 114.167,195.5 112.5,195.5C 112.225,189.157 114.391,183.823 119,179.5C 119.333,179.833 119.667,180.167 120,180.5C 124.459,177.697 129.126,175.363 134,173.5C 136.906,174.383 138.073,176.383 137.5,179.5 Z"/></g>
<g><path style="opacity:1" fill="#27a864" d="M 99.5,178.5 C 102.518,178.335 105.518,178.502 108.5,179C 110.886,179.284 111.552,180.284 110.5,182C 104.197,183.659 97.864,185.159 91.5,186.5C 86.5864,186.06 81.753,185.394 77,184.5C 76.2506,183.365 76.4173,182.365 77.5,181.5C 80.333,180.067 83.333,179.4 86.5,179.5C 90.8814,179.628 95.2147,179.295 99.5,178.5 Z"/></g>
<g><path style="opacity:1" fill="#b77555" d="M 39.5,175.5 C 45.2015,179.539 50.2015,184.206 54.5,189.5C 54.0472,190.458 53.3805,191.292 52.5,192C 53.9913,194.308 54.9913,196.808 55.5,199.5C 50.5995,216.104 40.9329,219.437 26.5,209.5C 26.9767,208.522 27.6433,207.689 28.5,207C 27.9498,204.842 26.9498,204.342 25.5,205.5C 31.1083,196.042 35.775,186.042 39.5,175.5 Z"/></g>
<g><path style="opacity:1" fill="#6869c1" d="M 121.5,189.5 C 125.725,194.263 129.225,199.596 132,205.5C 133.199,208.726 133.699,212.059 133.5,215.5C 126.52,214.835 119.52,214.502 112.5,214.5C 111.079,212.093 109.746,209.593 108.5,207C 109.737,206.768 110.737,206.268 111.5,205.5C 114.119,205.768 116.619,205.435 119,204.5C 119.167,203 119.333,201.5 119.5,200C 119.431,198.014 118.765,196.514 117.5,195.5C 117.5,193.5 117.5,191.5 117.5,189.5C 118.833,189.5 120.167,189.5 121.5,189.5 Z"/></g>
<g><path style="opacity:1" fill="#3c4042" d="M 112.5,195.5 C 114.167,195.5 115.833,195.5 117.5,195.5C 118.765,196.514 119.431,198.014 119.5,200C 119.333,201.5 119.167,203 119,204.5C 116.619,205.435 114.119,205.768 111.5,205.5C 106.269,205.444 101.269,206.111 96.5,207.5C 89.142,207.316 81.8087,207.65 74.5,208.5C 72.5453,208.276 70.8787,207.609 69.5,206.5C 69.7076,204.08 69.3742,201.747 68.5,199.5C 68.9569,198.702 69.6236,198.369 70.5,198.5C 72.5,198.5 74.5,198.5 76.5,198.5C 88.5,197.5 100.5,196.5 112.5,195.5 Z"/></g>
<g><path style="opacity:1" fill="#6467be" d="M 69.5,206.5 C 70.8787,207.609 72.5453,208.276 74.5,208.5C 81.8087,207.65 89.142,207.316 96.5,207.5C 93.8607,209.309 91.6941,211.642 90,214.5C 88.7195,219.087 87.5529,223.42 86.5,227.5C 80.8333,227.5 75.1667,227.5 69.5,227.5C 70.5594,224.092 71.2261,220.592 71.5,217C 70.975,213.459 70.3083,209.959 69.5,206.5 Z"/></g>
<g><path style="opacity:1" fill="#5d60ae" d="M 111.5,205.5 C 110.737,206.268 109.737,206.768 108.5,207C 109.746,209.593 111.079,212.093 112.5,214.5C 111.833,214.5 111.5,214.833 111.5,215.5C 105.477,215.669 99.4771,216.169 93.5,217C 91.7463,220.341 90.4129,223.841 89.5,227.5C 88.5,227.5 87.5,227.5 86.5,227.5C 87.5529,223.42 88.7195,219.087 90,214.5C 91.6941,211.642 93.8607,209.309 96.5,207.5C 101.269,206.111 106.269,205.444 111.5,205.5 Z"/></g>
<g><path style="opacity:1" fill="#a3684d" d="M 55.5,199.5 C 59.092,207.313 57.092,213.146 49.5,217C 47.8333,219.333 46.1667,221.667 44.5,224C 42.8333,224.667 41.1667,224.667 39.5,224C 35.5,222 31.5,220 27.5,218C 24.4619,214.128 23.7953,209.961 25.5,205.5C 26.9498,204.342 27.9498,204.842 28.5,207C 27.6433,207.689 26.9767,208.522 26.5,209.5C 40.9329,219.437 50.5995,216.104 55.5,199.5 Z"/></g>
<g><path style="opacity:1" fill="#b57456" d="M 137.5,179.5 C 137.833,179.5 138.167,179.5 138.5,179.5C 141.024,188.574 143.858,197.574 147,206.5C 149.87,216.998 146.036,222.831 135.5,224C 133.574,224.422 132.574,225.589 132.5,227.5C 124.862,225.401 117.529,222.734 110.5,219.5C 110.833,218.167 111.167,216.833 111.5,215.5C 111.5,214.833 111.833,214.5 112.5,214.5C 119.52,214.502 126.52,214.835 133.5,215.5C 133.699,212.059 133.199,208.726 132,205.5C 129.225,199.596 125.725,194.263 121.5,189.5C 126.497,185.666 131.83,182.333 137.5,179.5 Z"/></g>
<g><path style="opacity:1" fill="#b2c4d3" d="M 110.5,219.5 C 117.529,222.734 124.862,225.401 132.5,227.5C 131.171,230.544 131.337,233.544 133,236.5C 134.707,238.037 136.207,239.704 137.5,241.5C 127.895,237.909 118.228,234.409 108.5,231C 107.244,230.583 106.577,229.75 106.5,228.5C 107.042,225.088 108.375,222.088 110.5,219.5 Z"/></g>
<g><path style="opacity:1" fill="#b97657" d="M 69.5,227.5 C 75.1667,227.5 80.8333,227.5 86.5,227.5C 87.5,227.5 88.5,227.5 89.5,227.5C 88.3433,230.984 87.01,234.317 85.5,237.5C 79.1667,237.5 72.8333,237.5 66.5,237.5C 67.4967,234.183 68.4967,230.85 69.5,227.5 Z"/></g>
<g><path style="opacity:0.983" fill="#d0d2d3" d="M 106.5,228.5 C 106.577,229.75 107.244,230.583 108.5,231C 118.228,234.409 127.895,237.909 137.5,241.5C 137.938,241.435 138.272,241.601 138.5,242C 137.782,243.987 136.782,245.821 135.5,247.5C 126.276,243.722 116.943,240.222 107.5,237C 102.784,234.868 102.45,232.034 106.5,228.5 Z"/></g>
<g><path style="opacity:1" fill="#afc2d1" d="M 66.5,237.5 C 72.8333,237.5 79.1667,237.5 85.5,237.5C 85.3024,243.12 87.6357,247.12 92.5,249.5C 82.5,249.5 72.5,249.5 62.5,249.5C 64.0294,245.579 65.3627,241.579 66.5,237.5 Z"/></g>
<g><path style="opacity:0.998" fill="#d3d4d4" d="M 62.5,249.5 C 72.5,249.5 82.5,249.5 92.5,249.5C 93.0431,249.56 93.3764,249.893 93.5,250.5C 92.8256,252.195 92.1589,253.862 91.5,255.5C 81.1667,255.5 70.8333,255.5 60.5,255.5C 61.3627,253.579 62.0293,251.579 62.5,249.5 Z"/></g>
</svg>
